# xmcd CD database file
#
# Track frame offsets:
#	150
#	19733
#	39362
#	55020
#	83594
#	108359
#	142442
#	166800
#	197537
#	226947
#	246779
#	267856
#	289754
#
# Disc length: 4420 seconds
#
# Revision: 0
# Processed by: cddbd v1.5.2PL0 Copyright (c) Steve Scherf et al.
# Submitted via: jetAudio 7
#
DISCID=a811420d
DTITLE=Billy Price - Sworn Testimony: The Billy Price Band Live - Disc 
DTITLE=One
DYEAR=1900
DGENRE=Blues
TTITLE0=Fried Chicken
TTITLE1=Here I Am (Come And Take Me)
TTITLE2=Gonna Forget About You
TTITLE3=A Nickel and a Nail
TTITLE4=Further On Up the Road
TTITLE5=Mine All Mine All Mine
TTITLE6=Sixty Minute Man - Slip Away
TTITLE7=I've Been Searching
TTITLE8=Let Yourself Go
TTITLE9=You Better Believe It
TTITLE10=(I Think I'm) Drowning On Dry Land
TTITLE11=Bump And Grind
TTITLE12=Ain't It Funky Now - Back From the Dead
EXTD=
EXTT0=
EXTT1=
EXTT2=
EXTT3=
EXTT4=
EXTT5=
EXTT6=
EXTT7=
EXTT8=
EXTT9=
EXTT10=
EXTT11=
EXTT12=
PLAYORDER=
